<svg xmlns="http://www.w3.org/2000/svg" width="104" height="104" fill="none"><rect width="103.662" height="103.662" x=".169" y=".169" fill="#1F1F1F" rx="51.831"/><rect width="103.662" height="103.662" x=".169" y=".169" stroke="#444" stroke-width=".338" rx="51.831"/><path fill="url(#a)" d="M79.237 72.652c.628 0 1.226-.07 1.642-.192.61-.177 1.002-.743 1.382-1.288.187-.27.38-.55.549-.693.448-.382.92-.668 1.378-.945 1.067-.646 2.17-1.314 2.91-3.102 1.088-2.638 1.22-9.058.241-11.646-.376-.994-1.651-1.918-2.975-2.77a10 10 0 0 1-.282-.185c-.129-.117-.344-.242-.69-.445-.25-.146-.762-.442-1.383-.775-1.45-.779-2.564-1.272-3.31-1.468l-.04-.01-.038-.006a4 4 0 0 0-.54-.037c-.884 0-1.671 1.042-2.34 1.642-.616.552-.676.852-.554 1.536.03.166.067.373.094.663.012.133.054-.38.151.114.253 1.3.778 4.008 1.006 7.056.263 3.53-.298 8.663-.805 10.403l-.04.14.025.143c.203 1.167 1.556 1.863 3.619 1.863z"/><path fill="url(#b)" d="M84.103 52.773c-.063-.672-.26-2.31-.475-3.692-.993-6.38-5.04-10.886-8.261-13.543-3.852-3.177-8.694-5.527-13.285-6.448l-1.175-.235 2.54 5.805.257-.116c3.592 1.326 13.435 8.339 14.57 16.026l.043.282.24.157c1.509.973 3.005 1.89 4.722 2.425l.912.284-.09-.947z"/><path fill="url(#c)" d="M24.764 72.652c-.629 0-1.227-.07-1.643-.192-.61-.177-1.002-.743-1.382-1.288-.187-.27-.38-.55-.549-.693-.448-.382-.92-.668-1.378-.945-1.067-.646-2.17-1.314-2.91-3.102-1.088-2.638-1.22-9.058-.241-11.646.376-.994 1.651-1.918 2.975-2.77.108-.069.227-.146.282-.185.129-.117.344-.242.69-.445.25-.146.762-.442 1.383-.775 1.45-.779 2.035-.85 2.781-1.047l.04-.01.038-.006q.274-.037.54-.037c.884 0 1.67.305 2.34.905.615.553.675.852.554 1.536-.03.167.462-.047.435.24-.012.134-.054.358-.151.851-.253 1.301-.779 4.009-1.006 7.056-.263 3.53.298 8.663.804 10.403l.041.14-.025.144c-.203 1.166-1.556 1.862-3.619 1.862v.004Z"/><path fill="url(#d)" d="M19.897 52.773c.064-.672.26-2.31.475-3.692.993-6.38 5.04-10.886 8.261-13.543 3.852-3.177 8.694-5.527 13.285-6.448l1.175-.235-2.54 5.805-.257-.116c-3.901 1.438-13.659 6.681-15.1 16.449l-.043.282-.24.156c-1.508.974-2.475 1.47-4.192 2.005l-.912.284.09-.947z"/><path fill="url(#e)" d="M52.004 23.69s1.977 10.998 6.44 18.352c4.97 8.193 13.525 14.95 11.095 25.587-3.661 16.022-28.433 17.383-34.51 2.406-4.582-11.293 4.747-19.098 9.996-28.236 4.358-7.587 6.977-18.108 6.977-18.108h.002Zm5.773 49.959c9.832-2.992 10.349-16.36 2.548-20.535 0 0 3.668 4.072 2.88 10.557-.83 6.825-4.53 8.386-5.428 9.978"/><path fill="#fff" d="M51.993 23.5s2.66 11.377 7.192 19.188c4.388 7.561 11.151 13.8 8.934 23.505-3.34 14.618-25.942 15.86-31.486 2.195-4.18-10.302 2.816-17.518 7.767-25.762 4.653-7.747 7.593-19.124 7.593-19.124zm5.784 50.15c9.417-3.768 10.289-14.519 2.548-20.535 0 0 2.147 4.634 1.34 10.46-.917 6.592-2.902 8.328-3.886 10.074zM23.288 49.578a78 78 0 0 0-.393 2.95 2 2 0 0 0-.235.15c-.002.091-2.647 1.505-3.112 2.732-.934 2.462-.766 8.758.234 11.183.965 2.339 2.578 2.498 4.113 3.807.577.49 1.038 1.662 1.696 1.855 1.076.314 4.2.309 4.457-1.175-.535-1.83-1.094-7.069-.83-10.625.302-4.037 1.116-7.458 1.158-7.92.11-1.162.369-1.113-.252-1.67-.545-.49-1.3-.852-2.37-.71-.083.02-.171.049-.261.077 1.632-8.79 9.415-13.447 14.87-15.46l1.968-4.665c-8.3 1.665-19.365 8.686-21.045 19.469zm61.11 5.83c-.466-1.227-3.11-2.64-3.113-2.732 0-.005-.085-.06-.235-.15a78 78 0 0 0-.393-2.95c-1.678-10.783-12.745-17.804-21.045-19.469l1.97 4.665c5.455 2.011 13.236 6.67 14.868 15.46a4 4 0 0 0-.26-.078c-1.07-.142-1.825.223-2.37.71-.622.557-.362.508-.253 1.672.044.461.858 3.882 1.158 7.92.264 3.555-.295 8.792-.83 10.624.258 1.482 3.381 1.487 4.458 1.175.658-.191 1.118-1.362 1.695-1.855 1.535-1.309 3.148-1.47 4.113-3.807 1-2.425 1.168-8.72.235-11.183z"/><defs><linearGradient id="a" x1="81.566" x2="81.566" y1="27.596" y2="81.62" gradientUnits="userSpaceOnUse"><stop stop-color="#F819C0"/><stop offset="1" stop-color="#920F71"/></linearGradient><linearGradient id="b" x1="72.551" x2="72.551" y1="27.596" y2="81.619" gradientUnits="userSpaceOnUse"><stop stop-color="#F819C0"/><stop offset="1" stop-color="#920F71"/></linearGradient><linearGradient id="c" x1="22.362" x2="22.362" y1="27.597" y2="81.62" gradientUnits="userSpaceOnUse"><stop stop-color="#F819C0"/><stop offset="1" stop-color="#920F71"/></linearGradient><linearGradient id="d" x1="31.449" x2="31.449" y1="27.596" y2="81.619" gradientUnits="userSpaceOnUse"><stop stop-color="#F819C0"/><stop offset="1" stop-color="#920F71"/></linearGradient><linearGradient id="e" x1="51.882" x2="51.882" y1="27.596" y2="81.619" gradientUnits="userSpaceOnUse"><stop stop-color="#F819C0"/><stop offset="1" stop-color="#920F71"/></linearGradient></defs></svg>